<svg width="100" height="100" viewBox="0 0 100 100" fill="none" xmlns="http://www.w3.org/2000/svg">
  <!-- 背景圆 -->
  <circle cx="50" cy="50" r="45" fill="#FFE5E5"/>
  
  <!-- 主要的 JS 形状 -->
  <path d="M35 25 C55 25 55 45 55 55 C55 65 45 70 35 65"
        stroke="#FF6B6B"
        stroke-width="10"
        stroke-linecap="round"
        fill="none">
    <!-- 添加弹跳动画 -->
    <animate 
      attributeName="d" 
      dur="2s"
      repeatCount="indefinite"
      values="
        M35 25 C55 25 55 45 55 55 C55 65 45 70 35 65;
        M35 23 C55 23 55 43 55 53 C55 63 45 68 35 63;
        M35 25 C55 25 55 45 55 55 C55 65 45 70 35 65"
    />
  </path>
  
  <!-- 修改了 S 的路径 -->
  <path d="M65 35 C45 35 55 50 75 50 C95 50 85 65 65 65"
        stroke="#4ECDC4"
        stroke-width="10"
        stroke-linecap="round"
        fill="none">
    <!-- 添加摆动动画 -->
    <animate 
      attributeName="d" 
      dur="2s"
      repeatCount="indefinite"
      values="
        M65 35 C45 35 55 50 75 50 C95 50 85 65 65 65;
        M65 35 C45 35 55 48 75 48 C95 48 85 67 65 67;
        M65 35 C45 35 55 50 75 50 C95 50 85 65 65 65"
    />
  </path>
  
  <!-- 装饰元素 -->
  <!-- 小星星 -->
  <path d="M25 25 L27 20 L29 25 L25 23 L29 23 Z" fill="#FFD93D">
    <animate
      attributeName="opacity"
      values="1;0.5;1"
      dur="1.5s"
      repeatCount="indefinite"
    />
  </path>
  <path d="M75 75 L77 70 L79 75 L75 73 L79 73 Z" fill="#FFD93D">
    <animate
      attributeName="opacity"
      values="0.5;1;0.5"
      dur="1.5s"
      repeatCount="indefinite"
    />
  </path>
  
  <!-- 彩色小圆点 -->
  <circle cx="80" cy="30" r="3" fill="#FF9F43"/>
  <circle cx="20" cy="70" r="3" fill="#A3CB38"/>
  <circle cx="70" cy="20" r="3" fill="#FF6B6B"/>
  <circle cx="30" cy="80" r="3" fill="#4ECDC4"/>
  
  <!-- 装饰线条 -->
  <path d="M85 50 L90 50" stroke="#FFD93D" stroke-width="2"/>
  <path d="M15 50 L10 50" stroke="#FFD93D" stroke-width="2"/>
  <path d="M50 85 L50 90" stroke="#FFD93D" stroke-width="2"/>
  <path d="M50 15 L50 10" stroke="#FFD93D" stroke-width="2"/>
</svg>
